<?xml version="1.0" standalone="no"?>
<!DOCTYPE svg PUBLIC "-//W3C//DTD SVG 20010904//EN" "http://www.w3.org/TR/2001/REC-SVG-20010904/DTD/svg10.dtd">
<svg version="1.0" xmlns="http://www.w3.org/2000/svg"
  width="1360.000000pt" height="752.000000pt" viewBox="0 0 1360.000000 752.000000"
  preserveAspectRatio="xMidYMid meet">

  <g transform="translate(0.000000,752.000000) scale(0.100000,-0.100000)"
    fill="#000000" stroke="#000000" stroke-width="10" stroke-linecap="round" stroke-linejoin="round">
    <path
      d="M0 3760 l0 -3760 3270 0 3270 0 0 855 0 855 -125 0 -125 0 0 -725 0
-725 -72 0 c-40 0 -1397 -3 -3015 -6 l-2943 -6 0 3507 0 3508 3001 -5 c1650
-3 3003 -8 3006 -12 3 -3 6 -370 6 -816 l1 -810 128 0 128 0 0 950 0 950
-3265 0 -3265 0 0 -3760z" />
    <path
      d="M6300 3661 l0 -1391 120 0 120 0 0 1200 c0 902 3 1200 12 1200 6 0
61 -9 122 -20 61 -11 284 -51 496 -89 212 -39 480 -87 595 -107 116 -20 222
-39 238 -41 l27 -5 0 -1064 0 -1064 120 0 120 0 0 1154 c0 1091 -1 1155 -17
1160 -10 3 -45 10 -78 15 -88 14 -275 47 -480 86 -277 52 -555 102 -715 130
-80 13 -208 36 -285 50 -77 14 -143 25 -147 25 -5 0 -8 32 -8 70 l0 70 -97 0
c-54 0 -108 3 -120 6 l-23 6 0 -1391z" />
    <path
      d="M2440 4920 l0 -120 1270 0 1270 0 0 -1140 0 -1140 -1270 0 -1270 0 0
-120 0 -120 1385 0 1385 0 1 63 c0 57 0 2477 -1 2630 l0 67 -1385 0 -1385 0 0
-120z" />
    <path
      d="M13075 4422 c-82 -82 -305 -300 -494 -486 l-343 -338 -117 113 c-175
171 -526 514 -707 691 l-160 158 -175 0 -174 -1 215 -210 c372 -365 570 -558
757 -742 l181 -179 -351 -346 c-194 -191 -453 -447 -577 -569 l-225 -223 175
1 175 0 489 483 490 484 388 -377 c214 -207 440 -425 503 -484 l114 -108 166
-1 c91 0 168 2 170 4 3 2 -152 155 -343 340 -191 185 -453 439 -582 566 l-235
229 400 394 c220 216 481 473 580 571 l180 178 -175 0 -175 0 -150 -148z" />
    <path
      d="M8620 3420 l0 -1140 898 0 c493 0 961 -3 1039 -7 l141 -6 4 24 c1 13
2 70 0 126 l-3 103 -917 2 -917 3 -3 497 -2 498 919 2 c506 2 921 5 923 8 2 3
2 236 0 518 l-3 512 -1040 0 -1039 0 0 -1140z m1847 623 l1 -273 -804 0 -804
0 0 275 0 275 803 -2 802 -3 2 -272z" />
  </g>
</svg>